<svg xmlns="http://www.w3.org/2000/svg" width="331" height="280" fill="none" viewBox="0 0 331 280"><path fill="#585191" d="m.904 39.266 28.72-12.826 13.613 29.794 19.192-8.552L48.818 17.89 77.584 5.062l37.069 81.776-28.766 12.826L72.774 70.68l-19.192 8.596 13.158 28.939-28.54 12.827z"/><path fill="#585191" d="M194.947 45.651 155.593 96.58l-6.558 31.153-30.76-6.456 6.74-32.056-17.053-61.855 32.614 6.863 6.921 29.708 18.365-24.38zM197.402.696h40.888a43.63 43.63 0 0 1 28.141 7.977 27.44 27.44 0 0 1 7.609 10.143 27.7 27.7 0 0 1 2.265 12.518 30.2 30.2 0 0 1-2.374 13.612 29.9 29.9 0 0 1-8.173 11.088c-7.002 5.756-17.101 8.657-30.386 8.657h-6.777v26.24h-31.418zm44.388 26.106a13.36 13.36 0 0 0-8.123-2.085h-5.072v17.358h5.296c2.84.237 5.676-.514 8.034-2.13a8.3 8.3 0 0 0 2.031-2.992 8.4 8.4 0 0 0 .572-3.58 7.6 7.6 0 0 0-.549-3.634 7.5 7.5 0 0 0-2.189-2.937"/><path fill="#585191" d="m237.324 76.642 67.607-18.05 6.46 23.51-37.079 10.018 2.23 8.168 34.121-9.025 6.097 22.111-34.167 9.025 2.593 9.387 39.354-10.605 6.46 23.556-69.836 18.682zM18.747 221.205l10.059-89.011 43.678 5.217a50.17 50.17 0 0 1 25.214 8.231 17.6 17.6 0 0 1 5.703 7.585 17.73 17.73 0 0 1 .958 9.462 19.16 19.16 0 0 1-6.08 12.594 27.63 27.63 0 0 1-14.797 6.251 30.63 30.63 0 0 1 15.557 9.311 19 19 0 0 1 3.507 6.891c.684 2.515.845 5.146.472 7.727a21.53 21.53 0 0 1-3.515 10.213 21.37 21.37 0 0 1-8.02 7.193 48.15 48.15 0 0 1-27.896 3.374zm51.278-28.291a14.65 14.65 0 0 0-7.377-2.339l-8.94-1.034-1.476 12.863 9.165 1.08c2.539.482 5.162.217 7.555-.765a5.8 5.8 0 0 0 2.067-2.031 5.9 5.9 0 0 0 .839-2.782 5.4 5.4 0 0 0-.256-2.741 5.35 5.35 0 0 0-1.577-2.251m1.118-31.844a14.55 14.55 0 0 0-7.243-2.294l-6.75-.765-1.431 12.774 7.108.809c2.418.46 4.917.21 7.198-.719a5.65 5.65 0 0 0 2.002-2.021c.485-.835.75-1.78.77-2.747a5.34 5.34 0 0 0-.157-2.742 5.3 5.3 0 0 0-1.497-2.295"/><path fill="#585191" d="m92.35 279.399 13.552-93.385 35.777-5.867 43.231 84.041-31.892 5.236-5.06-11.555-23.671 3.882-.677 12.547zm33.564-38.185 13.868-2.256-11.655-26.54zM238.582 116.581l5.433 89.695-29.702 1.759-30.79-44.058 2.762 45.772-27.167 1.623-5.433-89.695 30.336-1.849 30.292 43.111-2.717-44.735z"/><path fill="#585191" d="M279.707 251.987h-.317a24.6 24.6 0 0 1-14.032 6.814 27.2 27.2 0 0 1-15.933-3.294 32.1 32.1 0 0 1-11.75-9.131 32 32 0 0 1-6.357-13.432 48.93 48.93 0 0 1 5.794-32.492 51.45 51.45 0 0 1 28.201-26.805 44.12 44.12 0 0 1 36.212 3.339 40.18 40.18 0 0 1 19.69 19.766 42.4 42.4 0 0 1 1.267 28.204l-29.377-8.529a17.33 17.33 0 0 0 1.132-10.018 9.317 9.317 0 0 0-5.07-5.957 11.44 11.44 0 0 0-11.769.632 39.66 39.66 0 0 0-11.024 13.345 39.5 39.5 0 0 0-4.275 16.755 13.53 13.53 0 0 0 2.73 6.279 13.6 13.6 0 0 0 5.463 4.145 12.84 12.84 0 0 0 8.51 1.534 8.56 8.56 0 0 0 3.544-1.735 8.5 8.5 0 0 0 2.385-3.138l-15.933-8.123 8.465-16.427 40.104 20.578-21.863 42.871-21.048-10.785z"/></svg>