<svg xmlns="http://www.w3.org/2000/svg" fill="none" viewBox="0 0 79 79"><path fill="#000" d="M52.84 4.76C54.81 15.52 63.31 24.03 74.08 26v26.85c-10.76 1.97-19.27 10.47-21.24 21.24H25.99C24.02 63.33 15.52 54.82 4.75 52.85V26c10.76-1.97 19.27-10.47 21.24-21.24zM57.17 0h-35.5c0 11.97-9.7 21.67-21.67 21.67v35.5c11.97 0 21.67 9.7 21.67 21.67h35.5c0-11.97 9.7-21.67 21.67-21.67v-35.5c-11.97 0-21.67-9.7-21.67-21.67" style="fill:#000;fill-opacity:1"/><path fill="#000" d="M51.58 37.17c-1.66-1.13-3.85-1.57-5.79-1.47-1.36.07-2.18-.5-2.13-2.25.13-3.52-.45-7.38-2.07-10.49-.43-.81-.91-1.51-1.43-2.24a.908.908 0 0 0-1.47 0c-.53.73-1 1.43-1.43 2.24-1.62 3.12-2.2 6.97-2.07 10.49.05 1.75-.76 2.32-2.13 2.25-1.95-.1-4.13.35-5.79 1.47-1.54 1.06-3.57 2.83-1.68 4.12 1.42.85 3.35.63 4.87 1.33.27.1.52.22.77.35 1.59.83 2.4 2.6 2.1 4.37-.11.68-.17 1.39-.17 2.12 0 4.99 2.81 9.04 6.28 9.04s6.28-4.05 6.28-9.04c0-.73-.06-1.44-.17-2.12-.3-1.76.51-3.54 2.1-4.37.25-.13.5-.24.77-.35 1.52-.7 3.45-.49 4.87-1.33 1.89-1.29-.14-3.05-1.68-4.12z" style="fill:#000;fill-opacity:1"/></svg>