<svg xmlns="http://www.w3.org/2000/svg" width="337" height="79" fill="none" viewBox="0 0 337 79"><g fill="#000" clip-path="url(#a)"><path d="M126.08 5.21c-1.81 4.32-3.63 9.11-5.4 13.69l-7.08 18.27h-.17L101.03 5.2h2.42l10.8 27.95 5.62-14.51c2.76-7.08 3.67-10.41 4.28-13.43h1.94zm1.98 1.99 1.99-1.99 1.99 1.99-1.99 1.99zm.95 7.34 1.9-.86h.17v22.98h-2.07zm7.6-12.01 1.9-.86h.17v34.99h-2.07zm7.61 0 1.9-.86h.17v34.99h-2.07zm25.09 33.26v.26c-.82.48-1.64.78-2.46.78-2.12 0-2.46-1.99-2.55-3.15-2.42 2.25-5.7 3.41-8.47 3.41-3.46 0-5.96-1.86-5.96-5.1 0-4.15 4.06-6.44 9.94-7.13 1.51-.17 3.07-.3 4.49-.39v-2.59c0-4.88-1.9-7.26-5.87-7.26-2.42 0-4.41.86-6.57 2.72l-.39-.47c2.38-2.16 4.71-3.37 7.82-3.37 4.67 0 7.08 2.5 7.08 8.03v11.06c0 2.07 0 3.28 2.16 3.28.26 0 .52-.04.78-.09zm-12.22.17c2.38 0 5.1-1.04 7.21-3.11v-7.78c-6.95.61-12.27 1.64-12.27 6.26 0 3.11 2.25 4.62 5.05 4.62zm53.26.7-2.72-29.2-11.06 27.21h-.17L184.69 8.15l-1.38 14.69c-.56 6.05-.78 10.37-.78 13.82h-1.73c.6-3.46 1.08-7.82 1.64-13.87l1.51-16.29-.52-1.17V5.2h2.42l11.36 25.75L207.66 5.2h2.03l2.94 31.45h-2.29zm24.57-.87v.26c-.82.48-1.64.78-2.46.78-2.12 0-2.46-1.99-2.55-3.15-2.42 2.25-5.7 3.41-8.47 3.41-3.46 0-5.96-1.86-5.96-5.1 0-4.15 4.06-6.44 9.94-7.13 1.51-.17 3.07-.3 4.49-.39v-2.59c0-4.88-1.9-7.26-5.87-7.26-2.42 0-4.41.86-6.57 2.72l-.39-.47c2.38-2.16 4.71-3.37 7.82-3.37 4.67 0 7.08 2.5 7.08 8.03v11.06c0 2.07 0 3.28 2.16 3.28.26 0 .52-.04.78-.09zm-12.22.17c2.38 0 5.1-1.04 7.21-3.11v-7.78c-6.95.61-12.27 1.64-12.27 6.26 0 3.11 2.25 4.62 5.05 4.62zm13.56-1.12.48-1.42c1.86 1.86 4.28 3.15 7.47 3.15 3.59 0 6.13-2.03 6.13-4.92s-2.68-4.15-5.4-5.36l-1.73-.78c-3.07-1.38-6.44-2.89-6.44-6.52s3.11-5.49 7.17-5.49c2.72 0 5.49.82 7.3 1.9l-.48 1.43c-1.51-1.25-4.19-2.72-7-2.72-3.33 0-5.18 1.99-5.18 4.23 0 2.85 3.15 4.06 5.44 5.1l1.73.78c2.89 1.3 6.35 2.85 6.35 6.74s-3.33 6.22-8.08 6.22c-2.46 0-5.27-.65-7.78-2.33zm17.84 0 .48-1.42c1.86 1.86 4.28 3.15 7.47 3.15 3.59 0 6.13-2.03 6.13-4.92s-2.68-4.15-5.4-5.36l-1.73-.78c-3.07-1.38-6.44-2.89-6.44-6.52s3.11-5.49 7.17-5.49c2.72 0 5.49.82 7.3 1.9l-.48 1.43c-1.51-1.25-4.19-2.72-7-2.72-3.33 0-5.18 1.99-5.18 4.23 0 2.85 3.15 4.06 5.44 5.1l1.73.78c2.89 1.3 6.35 2.85 6.35 6.74s-3.33 6.22-8.08 6.22c-2.46 0-5.27-.65-7.78-2.33zm37.02-3.32.52.3c-2.07 3.24-5.18 5.36-9.11 5.36-5.88 0-10.19-4.71-10.19-11.62s4.67-12.05 10.89-12.05c5.36 0 8.81 3.71 8.81 10.11h-17.32c-.04.43-.04.86-.04 1.3 0 6.91 3.8 11.06 8.55 11.06 2.68 0 6-1.47 7.91-4.45zm-16.33-8.6h14.9c-.09-5.27-2.59-8.81-6.78-8.81s-7.47 3.5-8.12 8.81m32.44-9.07-.78 1.94c-.82-.39-1.77-.52-2.46-.52-2.55 0-4.71 1.81-6.13 4.1v17.28h-2.07V14.54l1.9-.86h.17v4.67c1.9-2.89 4.23-4.75 7.26-4.75.69 0 1.38.09 2.12.26zm1.98-6.65 1.99-1.99 1.99 1.99-1.99 1.99zm.95 7.34 1.9-.86h.17v22.98h-2.07zm25.1 21.25v.26c-.82.48-1.64.78-2.46.78-2.12 0-2.46-1.99-2.55-3.15-2.42 2.25-5.7 3.41-8.47 3.41-3.46 0-5.96-1.86-5.96-5.1 0-4.15 4.06-6.44 9.94-7.13 1.51-.17 3.07-.3 4.49-.39v-2.59c0-4.88-1.9-7.26-5.88-7.26-2.42 0-4.41.86-6.57 2.72l-.39-.47c2.38-2.16 4.71-3.37 7.82-3.37 4.67 0 7.08 2.5 7.08 8.03v11.06c0 2.07 0 3.28 2.16 3.28.26 0 .52-.04.78-.09zm-12.22.17c2.38 0 5.1-1.04 7.21-3.11v-7.78c-6.96.61-12.27 1.64-12.27 6.26 0 3.11 2.25 4.62 5.05 4.62zm-220.9 25.36c0-10.37 6.83-16.63 16.33-16.63 5.05 0 9.37 2.81 11.75 5.01l-3.54 3.24c-1.3-3.59-4.32-7.56-8.29-7.56-5.14 0-6.74 6.61-6.74 14.08 0 10.19 3.8 14.6 9.37 14.6 2.59 0 6.48-.86 9.11-4.71l.52.3c-2.76 4.67-7.56 7.52-13.43 7.52-8.99 0-15.08-6.65-15.08-15.85m53.52 13.95v.26c-.48.35-2.76 1.64-5.79 1.64-3.89 0-4.92-2.12-5.18-3.33-1.81 1.94-4.36 3.24-7.08 3.24-3.89 0-6.13-2.59-6.13-5.7 0-3.84 3.41-6.74 9.33-7.3 1.64-.17 2.55-.26 3.8-.35v-2.29c0-3.02 0-6.83-4.92-6.83-2.12 0-4.23.69-6.31 2.29l-.39-.47c2.29-2.16 4.84-3.8 9.76-3.8 6.65 0 9.98 2.68 9.98 8.38v11.06c0 2.03 0 3.28 2.07 3.28.35 0 .6-.04.86-.09zm-11.05-2.2v-8.73c-3.76.65-5.36 2.98-5.36 6.18 0 2.85 1.25 4.1 2.68 4.1.82 0 1.73-.43 2.68-1.55m11.92-7.73c0-7.86 5.75-12.7 12.79-12.7 4.28 0 7.17 1.86 8.99 3.71l-2.51 2.25c-1.73-2.94-3.15-5.27-5.75-5.27-3.2 0-4.88 3.63-4.88 9.98 0 7.56 2.42 10.76 6.48 10.76 2.2 0 4.36-.95 6.44-3.63l.52.3c-2.63 3.93-5.92 6.44-10.67 6.44-6.35 0-11.4-4.49-11.4-11.84zm23.19 0c0-7.86 5.75-12.7 12.79-12.7 4.28 0 7.17 1.86 8.99 3.71l-2.51 2.25c-1.73-2.94-3.15-5.27-5.75-5.27-3.2 0-4.88 3.63-4.88 9.98 0 7.56 2.42 10.76 6.48 10.76 2.2 0 4.36-.95 6.44-3.63l.52.3c-2.63 3.93-5.92 6.44-10.67 6.44-6.35 0-11.4-4.49-11.4-11.84zm47.9-4.36v15.68h-8.12V60.03c0-1.51-.04-5.05-3.24-5.05-1.25 0-2.42.47-3.8 1.94v19.74h-8.12V43.87l7.95-2.2h.17v14.38c1.77-1.94 3.89-3.41 7.34-3.41 4.88 0 7.82 2.63 7.82 8.34m3.54-15.34L236 40.8l4.84 4.84-4.84 4.84zm.78 8.51 7.95-1.77h.17v24.28h-8.12zm35.21 21.12v.26c-.48.35-2.76 1.64-5.79 1.64-3.89 0-4.92-2.12-5.18-3.33-1.81 1.94-4.36 3.24-7.08 3.24-3.89 0-6.13-2.59-6.13-5.7 0-3.84 3.41-6.74 9.33-7.3 1.64-.17 2.55-.26 3.8-.35v-2.29c0-3.02 0-6.83-4.92-6.83-2.12 0-4.23.69-6.31 2.29l-.39-.47c2.29-2.16 4.84-3.8 9.76-3.8 6.65 0 9.98 2.68 9.98 8.38v11.06c0 2.03 0 3.28 2.07 3.28.35 0 .6-.04.86-.09zm-11.06-2.2v-8.73c-3.76.65-5.36 2.98-5.36 6.18 0 2.85 1.25 4.1 2.68 4.1.82 0 1.73-.43 2.68-1.55m51.53-12.09v15.68h-8.12V60.03c0-1.51-.04-5.05-3.2-5.05-1.25 0-2.51.6-4.06 2.46.3.99.48 2.2.48 3.54v15.68h-8.12V60.03c0-1.51-.04-5.05-3.2-5.05-1.12 0-2.25.47-3.59 1.94v19.74h-8.12V54.15l7.95-1.77h.17v3.63c1.73-1.9 3.8-3.37 7.21-3.37s5.79 1.3 6.96 4.06c1.86-2.25 3.97-4.06 7.95-4.06 4.8 0 7.69 2.63 7.69 8.34m3.24 4.06c0-7.47 5.7-12.4 13.22-12.4s12.83 4.62 12.83 12.14-5.7 12.4-13.22 12.4-12.83-4.62-12.83-12.14m17.49.04c0-7.04-1.38-11.84-4.54-11.84-3.41 0-4.41 4.67-4.41 11.58s1.38 11.75 4.54 11.75c3.37 0 4.41-4.58 4.41-11.49M52.84 4.76C54.81 15.52 63.31 24.03 74.08 26v26.85c-10.76 1.97-19.27 10.47-21.24 21.24H25.99C24.02 63.33 15.52 54.82 4.75 52.85V26c10.76-1.97 19.27-10.47 21.24-21.24zM57.17 0h-35.5c0 11.97-9.7 21.67-21.67 21.67v35.5c11.97 0 21.67 9.7 21.67 21.67h35.5c0-11.97 9.7-21.67 21.67-21.67v-35.5c-11.97 0-21.67-9.7-21.67-21.67" style="fill:#000;fill-opacity:1"/><path d="M51.58 37.17c-1.66-1.13-3.85-1.57-5.79-1.47-1.36.07-2.18-.5-2.13-2.25.13-3.52-.45-7.38-2.07-10.49-.43-.81-.91-1.51-1.43-2.24a.908.908 0 0 0-1.47 0c-.53.73-1 1.43-1.43 2.24-1.62 3.12-2.2 6.97-2.07 10.49.05 1.75-.76 2.32-2.13 2.25-1.95-.1-4.13.35-5.79 1.47-1.54 1.06-3.57 2.83-1.68 4.12 1.42.85 3.35.63 4.87 1.33.27.1.52.22.77.35 1.59.83 2.4 2.6 2.1 4.37-.11.68-.17 1.39-.17 2.12 0 4.99 2.81 9.04 6.28 9.04s6.28-4.05 6.28-9.04c0-.73-.06-1.44-.17-2.12-.3-1.76.51-3.54 2.1-4.37.25-.13.5-.24.77-.35 1.52-.7 3.45-.49 4.87-1.33 1.89-1.29-.14-3.05-1.68-4.12z" style="fill:#000;fill-opacity:1"/></g><defs><clipPath id="a"><path fill="#fff" d="M0 0h336.9v78.84H0z" style="fill:#fff;fill-opacity:1"/></clipPath></defs></svg>